<svg width="217" height="73" viewBox="0 0 217 73" fill="none" xmlns="http://www.w3.org/2000/svg">
<path d="M199.719 3.14004e-06H17.2903C16.6253 3.14004e-06 15.9683 3.14026e-06 15.3051 0.00365314C14.7499 0.00730314 14.1992 0.0179064 13.6387 0.0268306C12.421 0.0412514 11.2062 0.149062 10.0048 0.349326C8.80505 0.55395 7.64293 0.939724 6.55769 1.4936C5.47378 2.05216 4.48338 2.77796 3.62241 3.64466C2.75693 4.50892 2.03549 5.50788 1.48582 6.60314C0.934632 7.69623 0.552438 8.86757 0.352436 10.0767C0.150533 11.2843 0.0418868 12.5059 0.0274732 13.7304C0.0106447 14.2899 0.00886757 14.8513 0 15.4109V57.5944C0.00886757 58.1611 0.0106447 58.7101 0.0274732 59.2769C0.0418913 60.5014 0.150537 61.7228 0.352436 62.9304C0.551886 64.1402 0.934102 65.3122 1.48582 66.4057C2.03524 67.4974 2.75678 68.4924 3.62241 69.3518C4.48011 70.2224 5.47115 70.9487 6.55769 71.5029C7.64292 72.0583 8.80492 72.4464 10.0048 72.6542C11.2064 72.8528 12.4211 72.9607 13.6387 72.9768C14.1992 72.9892 14.7499 72.9963 15.3051 72.9963C15.9683 73 16.6253 73 17.2903 73H199.719C200.371 73 201.033 73 201.685 72.9963C202.238 72.9963 202.804 72.9892 203.357 72.9768C204.572 72.9615 205.785 72.8537 206.984 72.6542C208.188 72.4449 209.354 72.0569 210.444 71.5029C211.53 70.9483 212.52 70.2221 213.377 69.3518C214.24 68.489 214.963 67.4948 215.52 66.4057C216.067 65.3114 216.446 64.1395 216.642 62.9304C216.844 61.7227 216.957 60.5015 216.979 59.2769C216.986 58.7101 216.986 58.1611 216.986 57.5944C217 56.9314 217 56.272 217 55.5983V17.4034C217 16.7351 217 16.0721 216.986 15.4109C216.986 14.8513 216.986 14.2899 216.979 13.7303C216.957 12.5057 216.844 11.2844 216.642 10.0766C216.445 8.86819 216.067 7.69695 215.52 6.60307C214.4 4.40774 212.625 2.62075 210.444 1.49344C209.354 0.940914 208.187 0.555242 206.984 0.349162C205.785 0.148016 204.572 0.0401673 203.357 0.0265751C202.804 0.0176691 202.238 0.00697464 201.685 0.00341589C201.033 -0.00023411 200.371 3.14004e-06 199.719 3.14004e-06Z" fill="#A6A6A6"/>
<path d="M15.3139 71.4029C14.7614 71.4029 14.2223 71.3958 13.6741 71.3833C12.5385 71.3685 11.4056 71.269 10.2846 71.0857C9.2393 70.9045 8.22672 70.5675 7.28022 70.0858C6.3424 69.608 5.48704 68.9816 4.74689 68.2305C3.99603 67.4882 3.37091 66.6273 2.89629 65.6819C2.41644 64.7303 2.08436 63.7103 1.91161 62.6575C1.72505 61.5262 1.62412 60.3823 1.60967 59.2356C1.59818 58.8507 1.58312 57.5692 1.58312 57.5692V15.4107C1.58312 15.4107 1.59916 14.1489 1.60976 13.7781C1.62359 12.6333 1.72394 11.4912 1.90994 10.3616C2.08301 9.3059 2.41535 8.28298 2.89545 7.32829C3.36833 6.38351 3.98998 5.52196 4.73632 4.77703C5.48182 4.02502 6.33992 3.39537 7.27934 2.91102C8.22366 2.43084 9.23433 2.0962 10.2775 1.91833C11.4022 1.73322 12.539 1.63313 13.6785 1.61892L15.3148 1.59664H201.676L203.332 1.61982C204.461 1.63332 205.588 1.73251 206.702 1.91654C207.756 2.09665 208.777 2.43361 209.732 2.91637C211.614 3.89246 213.146 5.43674 214.112 7.33274C214.584 8.28084 214.911 9.29541 215.082 10.342C215.27 11.4808 215.376 12.6319 215.397 13.7862C215.403 14.303 215.403 14.8582 215.403 15.4107C215.417 16.0951 215.417 16.7465 215.417 17.4032V55.598C215.417 56.261 215.417 56.908 215.403 57.5603C215.403 58.1537 215.403 58.6974 215.395 59.257C215.374 60.3906 215.271 61.5212 215.086 62.6396C214.916 63.7 214.586 64.728 214.106 65.6873C213.628 66.6225 213.007 67.476 212.265 68.2162C211.524 68.9714 210.667 69.6015 209.727 70.0823C208.774 70.5677 207.755 70.906 206.702 71.0857C205.581 71.2699 204.448 71.3694 203.313 71.3833C202.781 71.3958 202.225 71.4029 201.685 71.4029L199.719 71.4065L15.3139 71.4029Z" fill="black"/>
<path d="M44.9162 37.0477C44.9357 35.5244 45.3377 34.0309 46.0849 32.706C46.8321 31.3812 47.9001 30.268 49.1896 29.4702C48.3704 28.2928 47.2897 27.3238 46.0333 26.6402C44.7769 25.9567 43.3795 25.5774 41.952 25.5324C38.9068 25.2108 35.9547 27.3662 34.4029 27.3662C32.8211 27.3662 30.432 25.5644 27.8592 25.6176C26.1951 25.6717 24.5733 26.1588 23.1518 27.0312C21.7303 27.9037 20.5576 29.1318 19.748 30.596C16.2409 36.7069 18.8569 45.6878 22.2164 50.6273C23.8973 53.0461 25.8617 55.7479 28.4321 55.6521C30.9474 55.5471 31.8868 54.0379 34.923 54.0379C37.931 54.0379 38.8124 55.6521 41.435 55.5912C44.134 55.5471 45.8346 53.1617 47.4564 50.72C48.6641 48.9966 49.5934 47.0918 50.21 45.0762C48.6419 44.4087 47.3037 43.2915 46.3624 41.8638C45.421 40.4361 44.918 38.7611 44.9162 37.0477Z" fill="white"/>
<path d="M39.9626 22.2838C41.4342 20.5059 42.1593 18.2207 41.9837 15.9135C39.7354 16.1511 37.6585 17.2325 36.167 18.9422C35.4378 19.7775 34.8793 20.7492 34.5234 21.8018C34.1675 22.8544 34.0213 23.9673 34.093 25.0768C35.2176 25.0884 36.3301 24.8431 37.3468 24.3593C38.3635 23.8756 39.2579 23.1659 39.9626 22.2838Z" fill="white"/>
<path d="M76.7115 49.5287H68.1279L66.0665 55.6542H62.4309L70.5611 32.9913H74.3384L82.4687 55.6542H78.771L76.7115 49.5287ZM69.0169 46.702H75.8208L72.4667 36.7608H72.3728L69.0169 46.702Z" fill="white"/>
<path d="M100.027 47.3935C100.027 52.5281 97.2965 55.827 93.1756 55.827C92.1317 55.882 91.0935 55.64 90.1799 55.1287C89.2663 54.6175 88.5143 53.8576 88.0099 52.9362H87.9319V61.1202H84.5618V39.1311H87.8239V41.8793H87.8859C88.4135 40.9623 89.1783 40.2064 90.0988 39.6921C91.0194 39.1777 92.0612 38.9241 93.1136 38.9582C97.2805 38.9583 100.027 42.2732 100.027 47.3935ZM96.5633 47.3935C96.5633 44.0483 94.8455 41.849 92.2246 41.849C89.6497 41.849 87.9178 44.0946 87.9178 47.3935C87.9178 50.7227 89.6497 52.9523 92.2246 52.9523C94.8456 52.9523 96.5633 50.7691 96.5633 47.3935Z" fill="white"/>
<path d="M118.098 47.3935C118.098 52.5281 115.367 55.827 111.246 55.827C110.202 55.882 109.164 55.64 108.25 55.1287C107.337 54.6175 106.585 53.8577 106.08 52.9362H106.002V61.1202H102.632V39.1311H105.894V41.8793H105.956C106.484 40.9623 107.249 40.2064 108.169 39.6921C109.09 39.1777 110.132 38.9241 111.184 38.9583C115.351 38.9583 118.098 42.2732 118.098 47.3935ZM114.634 47.3935C114.634 44.0483 112.916 41.849 110.295 41.849C107.72 41.849 105.988 44.0946 105.988 47.3935C105.988 50.7227 107.72 52.9523 110.295 52.9523C112.916 52.9523 114.634 50.7691 114.634 47.3935Z" fill="white"/>
<path d="M130.041 49.3397C130.29 51.5871 132.46 53.0627 135.424 53.0627C138.265 53.0627 140.308 51.587 140.308 49.5606C140.308 47.8016 139.076 46.7483 136.157 46.0265L133.239 45.3189C129.104 44.3138 127.184 42.3676 127.184 39.2095C127.184 35.2993 130.57 32.6134 135.378 32.6134C140.136 32.6134 143.399 35.2993 143.508 39.2095H140.106C139.903 36.9478 138.045 35.5826 135.33 35.5826C132.615 35.5826 130.758 36.9639 130.758 38.9742C130.758 40.5764 131.944 41.5192 134.847 42.241L137.328 42.8541C141.948 43.9537 143.868 45.8215 143.868 49.1364C143.868 53.3763 140.512 56.0318 135.174 56.0318C130.18 56.0318 126.809 53.4387 126.591 49.3396L130.041 49.3397Z" fill="white"/>
<path d="M151.141 35.2209V39.1311H154.263V41.8169H151.141V50.9259C151.141 52.341 151.766 53.0004 153.139 53.0004C153.509 52.9939 153.879 52.9677 154.247 52.9219V55.5917C153.63 55.7078 153.003 55.7603 152.375 55.7486C149.051 55.7486 147.755 54.4921 147.755 51.2876V41.8169H145.368V39.1311H147.755V35.2209H151.141Z" fill="white"/>
<path d="M156.071 47.3935C156.071 42.1948 159.114 38.928 163.858 38.928C168.618 38.928 171.646 42.1947 171.646 47.3935C171.646 52.6066 168.634 55.8591 163.858 55.8591C159.083 55.8591 156.071 52.6065 156.071 47.3935ZM168.213 47.3935C168.213 43.8273 166.589 41.7225 163.858 41.7225C161.127 41.7225 159.505 43.8434 159.505 47.3935C159.505 50.974 161.127 53.0628 163.858 53.0628C166.589 53.0628 168.213 50.974 168.213 47.3935Z" fill="white"/>
<path d="M174.425 39.1311H177.639V41.9435H177.717C177.934 41.0651 178.446 40.2889 179.165 39.7452C179.884 39.2016 180.767 38.9237 181.666 38.9582C182.055 38.9569 182.442 38.9993 182.821 39.0848V42.2571C182.33 42.1064 181.819 42.0371 181.307 42.0522C180.817 42.0322 180.329 42.1191 179.876 42.3068C179.423 42.4946 179.015 42.7788 178.682 43.14C178.348 43.5011 178.096 43.9307 177.943 44.3991C177.79 44.8675 177.739 45.3637 177.795 45.8537V55.6541H174.425L174.425 39.1311Z" fill="white"/>
<path d="M198.359 50.8011C197.905 53.8006 195.003 55.8591 191.289 55.8591C186.513 55.8591 183.549 52.6386 183.549 47.4719C183.549 42.2892 186.529 38.928 191.148 38.928C195.69 38.928 198.546 42.0682 198.546 47.0781V48.2401H186.951V48.445C186.897 49.0531 186.973 49.6657 187.172 50.2421C187.372 50.8185 187.692 51.3456 188.109 51.7882C188.527 52.2309 189.034 52.579 189.595 52.8095C190.157 53.04 190.761 53.1476 191.367 53.1252C192.164 53.2003 192.963 53.0146 193.646 52.5959C194.329 52.1772 194.86 51.5477 195.159 50.8011L198.359 50.8011ZM186.966 45.8697H195.175C195.205 45.323 195.122 44.7758 194.933 44.2626C194.743 43.7494 194.45 43.2812 194.072 42.8874C193.693 42.4937 193.238 42.1828 192.735 41.9744C192.232 41.7659 191.692 41.6644 191.148 41.6761C190.599 41.6729 190.055 41.779 189.547 41.9884C189.039 42.1978 188.577 42.5063 188.189 42.8962C187.8 43.2861 187.492 43.7496 187.282 44.2599C187.072 44.7703 186.965 45.3174 186.966 45.8697Z" fill="white"/>
<path d="M68.5944 15.9342C69.3009 15.8832 70.0099 15.9906 70.6702 16.2487C71.3305 16.5069 71.9256 16.9092 72.4127 17.4268C72.8997 17.9445 73.2665 18.5644 73.4867 19.242C73.7069 19.9195 73.7748 20.6378 73.6858 21.3451C73.6858 24.824 71.8175 26.8237 68.5944 26.8237H64.686V15.9342H68.5944ZM66.3666 25.2837H68.4067C68.9115 25.3141 69.4168 25.2308 69.8856 25.0398C70.3544 24.8489 70.7751 24.5552 71.1169 24.18C71.4587 23.8049 71.7131 23.3577 71.8616 22.8712C72.01 22.3846 72.0488 21.8708 71.9751 21.3673C72.0434 20.8657 72.0007 20.3551 71.85 19.8721C71.6993 19.3891 71.4443 18.9456 71.1032 18.5734C70.7622 18.2012 70.3436 17.9096 69.8774 17.7194C69.4112 17.5291 68.909 17.445 68.4067 17.4731H66.3666V25.2837Z" fill="white"/>
<path d="M75.5842 22.7111C75.5328 22.171 75.5942 21.6261 75.7644 21.1114C75.9346 20.5966 76.2098 20.1233 76.5723 19.7218C76.9349 19.3203 77.3769 18.9996 77.8698 18.7801C78.3628 18.5606 78.8959 18.4472 79.435 18.4472C79.9741 18.4472 80.5072 18.5606 81.0002 18.7801C81.4932 18.9996 81.9351 19.3203 82.2977 19.7218C82.6603 20.1233 82.9355 20.5966 83.1056 21.1114C83.2758 21.6261 83.3372 22.171 83.2859 22.7111C83.3382 23.2517 83.2775 23.7973 83.1078 24.3129C82.9381 24.8285 82.663 25.3027 82.3004 25.705C81.9377 26.1072 81.4954 26.4287 81.0019 26.6486C80.5085 26.8686 79.9747 26.9823 79.435 26.9823C78.8953 26.9823 78.3616 26.8686 77.8681 26.6486C77.3746 26.4287 76.9323 26.1072 76.5697 25.705C76.207 25.3027 75.932 24.8285 75.7622 24.3129C75.5925 23.7973 75.5319 23.2517 75.5842 22.7111ZM81.6283 22.7111C81.6283 20.9297 80.8331 19.888 79.4377 19.888C78.0369 19.888 77.2489 20.9297 77.2489 22.7111C77.2489 24.5067 78.0369 25.5404 79.4377 25.5404C80.8332 25.5404 81.6283 24.4995 81.6283 22.7111Z" fill="white"/>
<path d="M93.5235 26.8235H91.8517L90.1641 20.7711H90.0366L88.356 26.8235H86.7002L84.4493 18.6057H86.0839L87.5467 24.8764H87.6671L89.3459 18.6057H90.8919L92.5707 24.8764H92.6982L94.1539 18.6057H95.7654L93.5235 26.8235Z" fill="white"/>
<path d="M97.6586 18.6057H99.2099V19.9112H99.3303C99.5346 19.4423 99.8791 19.0492 100.316 18.7868C100.753 18.5243 101.26 18.4056 101.767 18.4471C102.164 18.417 102.563 18.4773 102.934 18.6235C103.305 18.7696 103.639 18.998 103.91 19.2915C104.182 19.585 104.384 19.9363 104.502 20.3192C104.621 20.7021 104.652 21.1069 104.593 21.5036V26.8235H102.982V21.9108C102.982 20.5902 102.412 19.9335 101.22 19.9335C100.95 19.9208 100.681 19.967 100.43 20.0689C100.18 20.1708 99.9546 20.326 99.7694 20.5238C99.5842 20.7216 99.4437 20.9573 99.3575 21.2149C99.2713 21.4725 99.2415 21.7457 99.2701 22.016V26.8235H97.6585L97.6586 18.6057Z" fill="white"/>
<path d="M107.161 15.3977H108.773V26.8235H107.161V15.3977Z" fill="white"/>
<path d="M111.013 22.7111C110.962 22.171 111.023 21.6261 111.193 21.1113C111.364 20.5965 111.639 20.1232 112.001 19.7217C112.364 19.3202 112.806 18.9994 113.299 18.7799C113.792 18.5604 114.325 18.447 114.864 18.447C115.403 18.447 115.937 18.5604 116.43 18.7799C116.923 18.9994 117.365 19.3202 117.727 19.7217C118.09 20.1232 118.365 20.5965 118.535 21.1113C118.705 21.6261 118.767 22.171 118.716 22.7111C118.768 23.2517 118.707 23.7973 118.537 24.313C118.368 24.8286 118.092 25.3027 117.73 25.705C117.367 26.1072 116.925 26.4286 116.431 26.6486C115.938 26.8686 115.404 26.9822 114.864 26.9822C114.325 26.9822 113.791 26.8686 113.297 26.6486C112.804 26.4286 112.361 26.1072 111.999 25.705C111.636 25.3027 111.361 24.8286 111.191 24.313C111.021 23.7973 110.961 23.2517 111.013 22.7111ZM117.057 22.7111C117.057 20.9297 116.262 19.888 114.866 19.888C113.466 19.888 112.678 20.9297 112.678 22.7111C112.678 24.5067 113.466 25.5404 114.866 25.5404C116.262 25.5404 117.057 24.4995 117.057 22.7111Z" fill="white"/>
<path d="M120.412 24.4995C120.412 23.0203 121.506 22.1675 123.449 22.0463L125.661 21.918V21.2087C125.661 20.3407 125.091 19.8506 123.989 19.8506C123.09 19.8506 122.466 20.183 122.287 20.764H120.727C120.892 19.3525 122.211 18.4471 124.064 18.4471C126.111 18.4471 127.265 19.4728 127.265 21.2087V26.8236H125.714V25.6687H125.587C125.328 26.0829 124.964 26.4207 124.534 26.6473C124.103 26.874 123.62 26.9816 123.134 26.959C122.791 26.9948 122.445 26.958 122.117 26.8509C121.789 26.7438 121.487 26.5687 121.231 26.337C120.974 26.1053 120.769 25.8221 120.628 25.5056C120.487 25.1891 120.413 24.8464 120.412 24.4995ZM125.661 23.7973V23.1103L123.667 23.2386C122.542 23.3143 122.032 23.6993 122.032 24.4238C122.032 25.1634 122.67 25.5938 123.547 25.5938C123.803 25.62 124.063 25.5939 124.31 25.5171C124.556 25.4402 124.785 25.3143 124.982 25.1467C125.18 24.9791 125.341 24.7732 125.458 24.5414C125.575 24.3096 125.644 24.0566 125.661 23.7973Z" fill="white"/>
<path d="M129.383 22.7111C129.383 20.1144 130.71 18.4694 132.773 18.4694C133.283 18.4457 133.79 18.5687 134.233 18.824C134.677 19.0793 135.039 19.4564 135.277 19.9111H135.397V15.3977H137.009V26.8235H135.465V25.5252H135.337C135.08 25.9768 134.706 26.3492 134.254 26.6019C133.802 26.8547 133.29 26.9781 132.773 26.959C130.696 26.9591 129.383 25.314 129.383 22.7111ZM131.048 22.7111C131.048 24.4541 131.865 25.5029 133.23 25.5029C134.588 25.5029 135.428 24.439 135.428 22.7182C135.428 21.0055 134.579 19.9263 133.23 19.9263C131.873 19.9263 131.048 20.9823 131.048 22.7111Z" fill="white"/>
<path d="M143.676 22.7111C143.625 22.171 143.687 21.6261 143.857 21.1114C144.027 20.5966 144.302 20.1233 144.665 19.7218C145.027 19.3203 145.469 18.9996 145.962 18.7801C146.455 18.5606 146.988 18.4472 147.527 18.4472C148.066 18.4472 148.6 18.5606 149.092 18.7801C149.585 18.9996 150.027 19.3203 150.39 19.7218C150.753 20.1233 151.028 20.5966 151.198 21.1114C151.368 21.6261 151.429 22.171 151.378 22.7111C151.43 23.2517 151.37 23.7973 151.2 24.3129C151.03 24.8285 150.755 25.3027 150.393 25.705C150.03 26.1072 149.588 26.4287 149.094 26.6486C148.601 26.8686 148.067 26.9823 147.527 26.9823C146.988 26.9823 146.454 26.8686 145.96 26.6486C145.467 26.4287 145.025 26.1072 144.662 25.705C144.299 25.3027 144.024 24.8285 143.855 24.3129C143.685 23.7973 143.624 23.2517 143.676 22.7111ZM149.721 22.7111C149.721 20.9297 148.925 19.888 147.53 19.888C146.129 19.888 145.341 20.9297 145.341 22.7111C145.341 24.5067 146.129 25.5404 147.53 25.5404C148.925 25.5404 149.721 24.4995 149.721 22.7111Z" fill="white"/>
<path d="M153.54 18.6057H155.092V19.9112H155.212C155.416 19.4423 155.761 19.0492 156.198 18.7868C156.635 18.5243 157.142 18.4056 157.649 18.4471C158.046 18.417 158.445 18.4773 158.816 18.6235C159.187 18.7696 159.521 18.998 159.792 19.2915C160.064 19.585 160.266 19.9363 160.384 20.3192C160.503 20.7021 160.534 21.1069 160.475 21.5036V26.8235H158.864V21.9108C158.864 20.5902 158.294 19.9335 157.102 19.9335C156.832 19.9208 156.563 19.967 156.312 20.0689C156.062 20.1708 155.836 20.326 155.651 20.5238C155.466 20.7216 155.326 20.9573 155.239 21.2149C155.153 21.4725 155.123 21.7457 155.152 22.016V26.8235H153.54V18.6057Z" fill="white"/>
<path d="M169.581 16.5597V18.6431H171.35V20.0092H169.581V24.2349C169.581 25.0957 169.934 25.4726 170.736 25.4726C170.941 25.472 171.147 25.4595 171.35 25.4352V26.7861C171.061 26.8382 170.768 26.8659 170.474 26.869C168.682 26.869 167.968 26.2345 167.968 24.6501V20.0091H166.672V18.6431H167.968V16.5597H169.581Z" fill="white"/>
<path d="M173.552 15.3977H175.149V19.9263H175.277C175.491 19.4531 175.845 19.0578 176.29 18.7944C176.736 18.5309 177.251 18.4121 177.766 18.4542C178.162 18.4326 178.557 18.499 178.924 18.6487C179.29 18.7984 179.62 19.0278 179.888 19.3204C180.157 19.613 180.358 19.9617 180.477 20.3415C180.597 20.7214 180.631 21.123 180.579 21.5179V26.8235H178.965V21.9179C178.965 20.6053 178.358 19.9406 177.219 19.9406C176.942 19.9177 176.664 19.956 176.403 20.0528C176.142 20.1497 175.906 20.3027 175.71 20.5011C175.514 20.6995 175.364 20.9387 175.269 21.2017C175.175 21.4648 175.139 21.7454 175.163 22.024V26.8235H173.552L173.552 15.3977Z" fill="white"/>
<path d="M189.975 24.6047C189.756 25.3557 189.282 26.0054 188.635 26.44C187.988 26.8747 187.21 27.0666 186.437 26.9822C185.899 26.9964 185.364 26.8928 184.87 26.6783C184.376 26.4638 183.934 26.1436 183.575 25.7401C183.216 25.3365 182.949 24.8591 182.792 24.3412C182.635 23.8232 182.591 23.277 182.665 22.7405C182.593 22.2023 182.637 21.6549 182.794 21.1354C182.951 20.6159 183.217 20.1363 183.574 19.7292C183.931 19.3221 184.371 18.9969 184.863 18.7757C185.356 18.5545 185.89 18.4425 186.43 18.4471C188.702 18.4471 190.072 20.0093 190.072 22.5898V23.1558H184.306V23.2466C184.281 23.5482 184.319 23.8518 184.417 24.1378C184.515 24.4239 184.672 24.6862 184.876 24.9078C185.081 25.1295 185.33 25.3056 185.606 25.425C185.882 25.5443 186.18 25.6042 186.481 25.6009C186.867 25.6475 187.257 25.5776 187.603 25.4002C187.949 25.2228 188.235 24.9459 188.424 24.6046L189.975 24.6047ZM184.306 21.9563H188.431C188.451 21.6805 188.414 21.4034 188.321 21.143C188.229 20.8825 188.084 20.6444 187.894 20.4439C187.705 20.2434 187.476 20.085 187.222 19.9788C186.969 19.8727 186.696 19.8211 186.421 19.8274C186.142 19.8239 185.866 19.8766 185.607 19.9823C185.349 20.0881 185.115 20.2448 184.918 20.4432C184.721 20.6416 184.565 20.8777 184.46 21.1375C184.355 21.3974 184.303 21.6758 184.306 21.9563Z" fill="white"/>
</svg>
