<svg width="362" height="94" viewBox="0 0 362 94" fill="none" xmlns="http://www.w3.org/2000/svg">
<path d="M0 31.1684L57.0735 0L114.46 31.1684V73.0964H104.11L104.267 36.5482L57.2302 62.4172L0 31.1684Z" fill="#FFB606"/>
<path d="M20.5593 52.6635L57.2302 73.0964L93.7605 52.6635V73.7442L57.2302 94L20.5593 73.9776V52.6635Z" fill="#FFB606"/>
<path d="M137.39 18.0186L172.727 18.0991C172.727 18.0991 176.492 18.1554 178.754 20.7185C181.137 23.2254 182.049 26.6939 181.9 28.4322V71.2132H172.257L172.394 28.6374C172.394 28.6374 172.482 27.4584 171.132 27.4906H137.39V18.0186Z" fill="#FFB606"/>
<path d="M190.366 18.0186H239.974V27.7159H200.342V40.0811H232.368V49.541H200.382V61.9062H239.974V71.4064H190.366V18.0186Z" fill="white"/>
<path d="M256.588 18.0387H290.892C290.892 18.0387 299.466 18.7147 300.406 26.6657V32.3675H290.892V27.5389H256.588V40.1897H290.892C290.892 40.1897 299.76 40.8174 300.426 48.8047V62.8518C300.426 62.8518 298.86 71.4466 290.912 71.4466H256.588C256.588 71.4466 247.202 70.7465 247.202 62.047V57.3955H256.588V61.9866H290.892V49.6215H256.588C256.588 49.6215 247.391 48.6598 247.391 40.4151V27.6757C247.391 27.6757 248.548 18.0387 256.588 18.0387Z" fill="white"/>
<path d="M308.788 18.0387H318.487V61.9665H362V71.4466H308.788V18.0387Z" fill="white"/>
</svg>
