<svg width="32" height="31" viewBox="0 0 32 31" fill="none" xmlns="http://www.w3.org/2000/svg">
<g clip-path="url(#clip0_458_776)">
<path d="M4.83668 10.2485C4.30961 10.2485 3.86242 10.4323 3.49482 10.7999C3.12722 11.1675 2.94336 11.6087 2.94336 12.1235V20.0283C2.94336 20.556 3.12716 21.0028 3.49482 21.3705C3.86242 21.7381 4.30961 21.922 4.83668 21.922C5.36336 21.922 5.80784 21.7382 6.16974 21.3705C6.53093 21.0029 6.71202 20.556 6.71202 20.0283V12.1235C6.71202 11.6086 6.52822 11.1675 6.16056 10.7999C5.79291 10.4323 5.35152 10.2485 4.83668 10.2485ZM20.0583 3.15239L21.3636 0.744558C21.4493 0.58515 21.4188 0.462911 21.2719 0.376957C21.1124 0.302839 20.9899 0.340396 20.9043 0.486972L19.5808 2.91405C18.4162 2.39915 17.1845 2.14123 15.8856 2.14123C14.5864 2.14123 13.3546 2.39921 12.1904 2.91405L10.8669 0.486972C10.7809 0.340396 10.6583 0.303171 10.4993 0.376957C10.352 0.463299 10.3215 0.58515 10.4076 0.744558L11.7129 3.15239C10.3893 3.82735 9.33517 4.76738 8.55086 5.9745C7.76654 7.18228 7.37421 8.50213 7.37421 9.93636H24.3785C24.3785 8.50246 23.9861 7.18256 23.2018 5.9745C22.4174 4.76738 21.3694 3.82735 20.0583 3.15239ZM12.512 6.65461C12.3708 6.7961 12.2023 6.86651 12.0063 6.86651C11.8099 6.86651 11.6448 6.7961 11.51 6.65461C11.3753 6.51379 11.3079 6.34586 11.3079 6.14923C11.3079 5.95326 11.3753 5.785 11.51 5.64384C11.6448 5.50302 11.8103 5.43261 12.0063 5.43261C12.2023 5.43261 12.3708 5.50302 12.512 5.64384C12.6528 5.78533 12.7236 5.95326 12.7236 6.14923C12.7232 6.34553 12.6525 6.51379 12.512 6.65461ZM20.2604 6.65461C20.1254 6.7961 19.9598 6.86651 19.7642 6.86651C19.5678 6.86651 19.3992 6.7961 19.2584 6.65461C19.1173 6.51379 19.0469 6.34586 19.0469 6.14923C19.0469 5.95326 19.1173 5.785 19.2584 5.64384C19.3992 5.50302 19.5678 5.43261 19.7642 5.43261C19.9602 5.43261 20.1253 5.50302 20.2604 5.64384C20.3952 5.78533 20.4625 5.95326 20.4625 6.14923C20.4625 6.34553 20.3952 6.51379 20.2604 6.65461ZM7.44722 22.841C7.44722 23.4052 7.64319 23.8829 8.03518 24.2749C8.42751 24.6669 8.90518 24.8629 9.46908 24.8629H10.8295L10.8482 29.0364C10.8482 29.5634 11.032 30.0109 11.3996 30.3786C11.7672 30.7462 12.2086 30.93 12.7231 30.93C13.2499 30.93 13.6973 30.7462 14.065 30.3786C14.4326 30.0109 14.6164 29.5634 14.6164 29.0364V24.8633H17.1533V29.0364C17.1533 29.5634 17.337 30.0109 17.7047 30.3786C18.0723 30.7462 18.5194 30.93 19.0465 30.93C19.5732 30.93 20.0207 30.7462 20.3884 30.3786C20.756 30.0109 20.9398 29.5634 20.9398 29.0364V24.8633H22.3186C22.87 24.8633 23.3415 24.6672 23.7342 24.2752C24.1262 23.8832 24.3223 23.4056 24.3223 22.8413V10.5975H7.44722V22.841ZM26.9337 10.2485C26.4188 10.2485 25.9778 10.4296 25.6101 10.7908C25.2425 11.1527 25.0587 11.5971 25.0587 12.1235V20.0283C25.0587 20.556 25.2425 21.0028 25.6101 21.3705C25.9778 21.7382 26.4192 21.922 26.9337 21.922C27.4605 21.922 27.9079 21.7382 28.2756 21.3705C28.6433 21.0028 28.827 20.556 28.827 20.0283V12.1235C28.827 11.5971 28.6433 11.1527 28.2756 10.7908C27.9079 10.4296 27.4605 10.2485 26.9337 10.2485Z" fill="white"/>
</g>
<defs>
<clipPath id="clip0_458_776">
<rect width="30.59" height="30.59" fill="white" transform="translate(0.589844 0.339966)"/>
</clipPath>
</defs>
</svg>
