<svg width="31" height="31" viewBox="0 0 31 31" fill="none" xmlns="http://www.w3.org/2000/svg">
<g clip-path="url(#clip0_458_773)">
<path d="M21.0298 0.339966C19.3988 0.45278 17.4924 1.49679 16.3815 2.85629C15.3681 4.0896 14.5344 5.92139 14.8595 7.70156C16.6415 7.75701 18.4829 6.68814 19.5498 5.30569C20.548 4.01885 21.3032 2.19853 21.0298 0.339966Z" fill="white"/>
<path d="M27.474 10.6028C25.9082 8.63936 23.7076 7.49989 21.6294 7.49989C18.8859 7.49989 17.7254 8.81334 15.8193 8.81334C13.8539 8.81334 12.3607 7.50372 9.9881 7.50372C7.65753 7.50372 5.17593 8.92806 3.60247 11.3638C1.39044 14.7937 1.76899 21.2424 5.35374 26.7352C6.6366 28.7006 8.34963 30.9107 10.5903 30.9298C12.5844 30.9489 13.1465 29.6507 15.848 29.6374C18.5494 29.6221 19.0618 30.947 21.0521 30.926C23.2947 30.9088 25.1014 28.4597 26.3842 26.4943C27.3038 25.0852 27.6461 24.3759 28.3592 22.7852C23.1723 20.8103 22.3406 13.4343 27.474 10.6028Z" fill="white"/>
</g>
<defs>
<clipPath id="clip0_458_773">
<rect width="30.59" height="30.59" fill="white" transform="translate(0 0.339966)"/>
</clipPath>
</defs>
</svg>
