<svg width="25" height="16" viewBox="0 0 25 16" fill="none" xmlns="http://www.w3.org/2000/svg">
<path d="M0 2C0 0.895431 0.895431 0 2 0H23C24.1046 0 25 0.895431 25 2C25 3.10457 24.1046 4 23 4H2C0.89543 4 0 3.10457 0 2Z" fill="white"/>
<path d="M0 8C0 6.89543 0.895431 6 2 6H23C24.1046 6 25 6.89543 25 8C25 9.10457 24.1046 10 23 10H2C0.89543 10 0 9.10457 0 8Z" fill="white"/>
<path d="M0 14C0 12.8954 0.895431 12 2 12H23C24.1046 12 25 12.8954 25 14C25 15.1046 24.1046 16 23 16H2C0.89543 16 0 15.1046 0 14Z" fill="white"/>
</svg>
