<svg width="30" height="30" viewBox="0 0 30 30" fill="none" xmlns="http://www.w3.org/2000/svg">
<path fill-rule="evenodd" clip-rule="evenodd" d="M15 29C22.732 29 29 22.732 29 15C29 7.26801 22.732 1 15 1C7.26801 1 1 7.26801 1 15C1 22.732 7.26801 29 15 29ZM15 30C23.2843 30 30 23.2843 30 15C30 6.71573 23.2843 0 15 0C6.71573 0 0 6.71573 0 15C0 23.2843 6.71573 30 15 30Z" fill="white"/>
<path d="M14 7.8C14 7.35817 14.3582 7 14.8 7C15.2418 7 15.6 7.35817 15.6 7.8V22.2C15.6 22.6418 15.2418 23 14.8 23C14.3582 23 14 22.6418 14 22.2V7.8Z" fill="white"/>
<path d="M7.8 16C7.35817 16 7 15.6418 7 15.2C7 14.7582 7.35817 14.4 7.8 14.4H22.2C22.6418 14.4 23 14.7582 23 15.2C23 15.6418 22.6418 16 22.2 16H7.8Z" fill="white"/>
</svg>
