<svg width="19" height="19" viewBox="0 0 19 19" fill="none" xmlns="http://www.w3.org/2000/svg">
<path d="M14.7725 12.9913C14.1986 13.8654 13.4161 14.5829 12.4957 15.0791C11.5752 15.5752 10.5457 15.8344 9.5 15.8333C6.00875 15.8333 3.16667 12.9913 3.16667 9.5C3.16667 6.00875 6.00875 3.16667 9.5 3.16667C11.7008 3.16667 13.6404 4.29083 14.7725 6.00875C15.3267 5.70792 15.96 5.54167 16.625 5.54167C17.2188 5.54167 17.7888 5.67625 18.2954 5.91375C16.8783 2.44625 13.4742 0 9.5 0C4.25917 0 0 4.25917 0 9.5C0 14.7408 4.25917 19 9.5 19C13.4742 19 16.8783 16.5538 18.2954 13.0863C17.7888 13.3238 17.2188 13.4583 16.625 13.4583C15.96 13.4583 15.3267 13.2921 14.7725 12.9913Z" fill="white"/>
<path d="M7.12467 9.8958C7.12467 8.47872 8.28051 7.32288 9.69759 7.32288H11.7955C11.3598 6.86364 10.7964 6.54557 10.178 6.40976C9.5597 6.27396 8.91486 6.32665 8.32678 6.56103C7.7387 6.79541 7.23439 7.20071 6.87899 7.7246C6.52358 8.24849 6.3334 8.8669 6.33301 9.49997C6.33301 10.8062 7.12467 11.9304 8.26467 12.4054C8.26467 12.4054 7.12467 11.5045 7.12467 9.8958Z" fill="white"/>
<path d="M16.6247 7.125C15.5211 7.125 14.5996 7.885 14.3344 8.90625H9.69759C9.15213 8.90625 8.70801 9.35038 8.70801 9.89583V10.4896C8.70801 10.6471 8.77056 10.7981 8.88191 10.9094C8.99326 11.0208 9.14429 11.0833 9.30176 11.0833C9.45923 11.0833 9.61025 11.0208 9.7216 10.9094C9.83295 10.7981 9.89551 10.6471 9.89551 10.4896V10.0938H10.2913V10.4896C10.2913 10.6471 10.3539 10.7981 10.4652 10.9094C10.5766 11.0208 10.7276 11.0833 10.8851 11.0833C11.0426 11.0833 11.1936 11.0208 11.3049 10.9094C11.4163 10.7981 11.4788 10.6471 11.4788 10.4896V10.0938H14.3344C14.4651 10.6023 14.7609 11.0531 15.1754 11.3754C15.5899 11.6978 16.0996 11.8735 16.6247 11.875C17.9341 11.875 18.9997 10.8094 18.9997 9.5C18.9997 8.19058 17.9341 7.125 16.6247 7.125ZM16.6247 10.6875C15.97 10.6875 15.4372 10.1547 15.4372 9.5C15.4372 8.84529 15.97 8.3125 16.6247 8.3125C17.2794 8.3125 17.8122 8.84529 17.8122 9.5C17.8122 10.1547 17.2794 10.6875 16.6247 10.6875Z" fill="white"/>
</svg>
