<svg width="17" height="19" viewBox="0 0 17 19" fill="none" xmlns="http://www.w3.org/2000/svg">
<path d="M8.50548 0.296875C3.97521 0.296875 0.304688 4.41602 0.304688 9.5C0.304688 14.584 3.97521 18.7031 8.50548 18.7031C13.0358 18.7031 16.7063 14.584 16.7063 9.5C16.7063 4.41602 13.0358 0.296875 8.50548 0.296875ZM8.50548 3.85938C10.1126 3.85938 11.4154 5.32148 11.4154 7.125C11.4154 8.92852 10.1126 10.3906 8.50548 10.3906C6.89839 10.3906 5.59552 8.92852 5.59552 7.125C5.59552 5.32148 6.89839 3.85938 8.50548 3.85938ZM8.50548 16.625C6.56441 16.625 4.82505 15.6379 3.66106 14.0941C4.28274 12.7805 5.49963 11.875 6.91823 11.875C6.9976 11.875 7.07696 11.8898 7.15301 11.9158C7.58289 12.0717 8.03262 12.1719 8.50548 12.1719C8.97835 12.1719 9.43138 12.0717 9.85795 11.9158C9.93401 11.8898 10.0134 11.875 10.0927 11.875C11.5113 11.875 12.7282 12.7805 13.3499 14.0941C12.1859 15.6379 10.4466 16.625 8.50548 16.625Z" fill="white"/>
</svg>
